<svg width="43" height="43" viewBox="0 0 43 43" fill="none" xmlns="http://www.w3.org/2000/svg">
<path d="M25.0503 8.54211L25.0419 8.54765C24.0419 9.2034 23.1634 10.2416 22.6872 11.3708C22.2345 12.4443 22.1996 13.4468 22.5521 14.2719C22.5663 14.2888 22.584 14.3066 22.6058 14.3244C22.8337 14.4924 23.1739 14.583 23.7412 14.4283C24.344 14.2639 24.9989 13.8602 25.4888 13.3618L25.5032 13.3472L25.5179 13.3328C26.2531 12.615 26.8645 11.6722 27.1652 10.7287C27.4619 9.79761 27.4199 9.0071 27.1023 8.38543C27.0764 8.3366 27.0531 8.30813 27.0349 8.28948L25.0503 8.54211ZM25.0503 8.54211L25.0587 8.53648M25.0503 8.54211L25.0587 8.53648M25.0587 8.53648C25.4162 8.29686 25.905 8.13529 26.3506 8.12048M25.0587 8.53648L26.3506 8.12048M26.3506 8.12048C26.797 8.10564 26.9812 8.23467 27.0349 8.28945L26.3506 8.12048ZM15.911 10.5229C16.4428 12.389 15.4387 14.8414 13.6244 15.8309C13.3776 15.964 13.0935 16.0068 12.8753 15.9733C12.6978 15.946 12.6284 15.885 12.5946 15.8392C12.0977 14.9961 12.0206 13.8347 12.4485 12.6289C12.8824 11.4061 13.7553 10.3862 14.7775 9.89224C15.082 9.74604 15.4645 9.81965 15.7128 10.0913L15.7129 10.0914C15.7982 10.1848 15.8563 10.2946 15.8832 10.414L15.8955 10.4689L15.911 10.5229ZM15.0287 21.4094C16.8263 21.3131 18.6861 22.0169 19.7986 23.2076L19.7987 23.2077C20.3274 23.7735 20.6822 24.4405 20.8183 25.2006L20.8206 25.2132L20.823 25.2257C21.2716 27.559 20.6388 30.0632 19.8302 32.9315C19.5213 33.7255 19.2485 34.404 18.8974 34.9755C18.5765 35.4977 18.2698 35.794 17.9615 35.9538C17.7734 35.9954 17.5782 35.9612 17.34 35.8021C17.0326 35.5969 16.7478 35.2285 16.6073 34.8205L16.5934 34.78L16.5777 34.74C16.4497 34.4146 16.3335 34.0846 16.2031 33.7144C16.1704 33.6215 16.1368 33.526 16.1019 33.4275C15.9354 32.9578 15.745 32.4344 15.5152 31.9149C15.0648 30.8966 14.4138 29.7738 13.307 28.8779C12.2776 27.9115 11.0292 27.3142 10.095 26.8672C10.0186 26.8307 9.94439 26.7951 9.87252 26.7605C8.78029 26.2339 8.09616 25.8553 7.61891 25.3116L7.60424 25.2948L7.5892 25.2785C7.45357 25.1307 7.35032 24.8538 7.44574 24.4594C7.54222 24.0605 7.79867 23.7537 8.09273 23.618L8.20633 23.5655L8.31251 23.4993C10.258 22.2865 12.6089 21.6476 15.0287 21.4094ZM29.9144 17.126L29.955 17.0972L29.9941 17.0664C30.7486 16.472 31.6918 16.0241 32.5818 15.8699C33.4055 15.7271 34.0503 15.8501 34.5287 16.1691C34.6676 16.3271 34.7825 16.6064 34.7126 17.0955C34.637 17.6234 34.3603 18.1891 33.9864 18.5845L33.9336 18.6403L33.8852 18.7C33.1905 19.5579 32.1793 20.27 31.1203 20.6212C30.1003 20.9595 29.1765 20.9251 28.4393 20.5605C28.4196 20.5464 28.4051 20.5342 28.3954 20.5249C28.3916 20.5213 28.3887 20.5184 28.3867 20.5163C28.1842 20.1593 28.1384 19.6681 28.4112 18.9938C28.6987 18.2829 29.2731 17.5815 29.9144 17.126ZM27.6393 27.9577L27.7126 27.9115L27.7818 27.8592C28.5582 27.2706 29.5748 26.873 30.5386 26.7986C31.4263 26.7301 32.1266 26.9378 32.6159 27.3451C32.6987 27.4836 32.7465 27.7014 32.6403 28.0736C32.5042 28.5508 32.1581 29.0519 31.7427 29.3674L31.6869 29.4098L31.6341 29.456C30.8857 30.1118 29.8017 30.5957 28.751 30.7067C27.7629 30.8111 27.0256 30.5761 26.5513 30.1301C26.4636 29.9877 26.4054 29.7437 26.5648 29.3009C26.7571 28.7667 27.1862 28.243 27.6393 27.9577Z" fill="#623761" stroke="black" stroke-width="4"/>
</svg>
